<svg width="50" height="50" viewBox="0 0 50 50" fill="none" xmlns="http://www.w3.org/2000/svg">
<mask id="mask0_806_1062" style="mask-type:luminance" maskUnits="userSpaceOnUse" x="5" y="10" width="40" height="30">
<path d="M5 10.5547H45V39.4436H5V10.5547Z" fill="white"/>
</mask>
<g mask="url(#mask0_806_1062)">
<path d="M39.4123 31.4253C42.2486 30.9272 44.4165 28.4657 44.4165 25.5053V17.1462C44.4165 13.8262 41.7079 11.1348 38.3659 11.1348H20.3762C17.035 11.1348 14.3257 13.8262 14.3257 17.1462V18.5209H23.9743C26.5304 18.5209 28.6027 20.5793 28.6027 23.1192V29.5141C28.6027 30.2326 28.4371 30.912 28.1415 31.5174H30.9355L41.0059 37.7274L39.4298 31.5174L39.4123 31.4253Z" fill="#003A63"/>
<path d="M11.8242 29.0859C11.223 29.0859 10.7363 29.5702 10.7363 30.1677C10.7363 30.7644 11.223 31.2487 11.8242 31.2487C12.4255 31.2487 12.9129 30.7644 12.9129 30.1677C12.9129 29.5702 12.4255 29.0859 11.8242 29.0859Z" fill="#003A63"/>
<path d="M17.1128 29.0859C16.5123 29.0859 16.0249 29.5702 16.0249 30.1677C16.0249 30.7644 16.5123 31.2487 17.1128 31.2487C17.7141 31.2487 18.2015 30.7644 18.2015 30.1677C18.2015 29.5702 17.7141 29.0859 17.1128 29.0859Z" fill="#003A63"/>
<path d="M22.4022 29.0859C21.8009 29.0859 21.3135 29.5702 21.3135 30.1677C21.3135 30.7644 21.8009 31.2487 22.4022 31.2487C23.0034 31.2487 23.4901 30.7644 23.4901 30.1677C23.4901 29.5702 23.0034 29.0859 22.4022 29.0859Z" fill="#003A63"/>
<path d="M41.0057 38.3077C41.127 38.3077 41.248 38.2702 41.3503 38.196C41.5424 38.0564 41.63 37.8151 41.5718 37.5858L39.9956 31.3758C39.9168 31.0652 39.5994 30.8769 39.2869 30.9552C38.9743 31.0336 38.7847 31.3489 38.8636 31.6595L40.0866 36.4782L31.2433 31.0248C30.9693 30.8558 30.6095 30.9396 30.4394 31.2118C30.2694 31.484 30.3537 31.8416 30.6276 32.0105L40.698 38.2205C40.7925 38.2788 40.8993 38.3077 41.0057 38.3077Z" fill="#003A63"/>
<path d="M28.1414 32.0976H30.9076C31.2299 32.0976 31.4913 31.8379 31.4913 31.5175C31.4913 31.1972 31.2299 30.9375 30.9076 30.9375H28.1414C27.819 30.9375 27.5576 31.1972 27.5576 31.5175C27.5576 31.8379 27.819 32.0976 28.1414 32.0976Z" fill="#003A63"/>
<path d="M39.3999 32.0076C39.4371 32.0076 39.4749 32.0041 39.5128 31.9967L39.5163 31.996C42.6941 31.4368 45.0001 28.7074 45.0001 25.5053V17.1462C45.0001 13.5117 42.0239 10.5547 38.3657 10.5547H20.3761C16.7179 10.5547 13.7417 13.5117 13.7417 17.1462V18.5209C13.7417 18.8412 14.0031 19.1009 14.3255 19.1009C14.6479 19.1009 14.9092 18.8412 14.9092 18.5209V17.1462C14.9092 14.1513 17.3617 11.7148 20.3761 11.7148H38.3657C41.3802 11.7148 43.8326 14.1513 43.8326 17.1462V25.5053C43.8326 28.1444 41.9308 30.3939 39.3105 30.8541C39.3059 30.8549 39.3013 30.8558 39.2966 30.8567L39.2827 30.8594C38.967 30.9239 38.7637 31.2307 38.8287 31.5445C38.8856 31.8188 39.1286 32.0076 39.3999 32.0076Z" fill="#003A63"/>
<path d="M8.19224 39.444C8.29871 39.444 8.40545 39.4151 8.50001 39.3568L16.204 34.6063C16.4779 34.4374 16.5622 34.0798 16.3922 33.8076C16.2222 33.5355 15.8623 33.4517 15.5884 33.6206L9.1112 37.6146L9.96366 34.2553C10.0425 33.9447 9.85299 33.6294 9.54038 33.551C9.22806 33.4726 8.91039 33.661 8.83165 33.9716L7.62617 38.7222C7.56796 38.9514 7.6556 39.1928 7.84771 39.3323C7.94997 39.4065 8.07096 39.444 8.19224 39.444Z" fill="#003A63"/>
<path d="M15.9175 34.6936H23.974C25.9586 34.6936 27.8005 33.5464 28.6666 31.7709C29.0114 31.0646 29.1862 30.3054 29.1862 29.5146V23.1196C29.1862 20.2643 26.848 17.9414 23.974 17.9414H10.2114C7.33785 17.9414 5 20.2643 5 23.1196V29.5146C5 32.0307 6.81232 34.1754 9.30928 34.6144C9.31456 34.6154 9.3199 34.6162 9.32517 34.617C9.62361 34.6665 9.9147 34.4791 9.98759 34.1821C10.064 33.8709 9.87201 33.5571 9.55876 33.4812C9.5386 33.4763 9.51835 33.4724 9.49812 33.4695C7.5673 33.123 6.1675 31.4621 6.1675 29.5146V23.1196C6.1675 20.904 7.98159 19.1014 10.2114 19.1014H23.974C26.2043 19.1014 28.0187 20.904 28.0187 23.1196V29.5146C28.0187 30.1286 27.8832 30.7175 27.616 31.2648C26.9334 32.6643 25.5379 33.5335 23.974 33.5335H15.9175C15.5952 33.5335 15.3338 33.7932 15.3338 34.1136C15.3338 34.4339 15.5952 34.6936 15.9175 34.6936Z" fill="#003A63"/>
</g>
</svg>
