<svg width="50" height="50" viewBox="0 0 50 50" fill="none" xmlns="http://www.w3.org/2000/svg">
<mask id="mask0_807_1010" style="mask-type:luminance" maskUnits="userSpaceOnUse" x="3" y="11" width="45" height="28">
<path d="M48 11H3V38.1773H48V11Z" fill="white"/>
</mask>
<g mask="url(#mask0_807_1010)">
<path d="M47.3901 32.2632V33.1749C47.3901 33.6928 46.9812 34.1148 46.477 34.1148H35.536C35.3285 32.2844 34.5062 30.6482 33.2866 29.4324C34.2431 27.701 36.0493 26.5332 38.1217 26.5332H41.8295C44.9004 26.5332 47.3901 29.0992 47.3901 32.2632Z" fill="#003A63"/>
<path d="M17.7138 29.431C19.0754 28.0714 20.9319 27.2344 22.9784 27.2344H28.0226C30.0691 27.2344 31.9256 28.0714 33.2864 29.4318C34.5061 30.6476 35.3283 32.2839 35.5358 34.1142C35.5701 34.4137 35.5877 34.7194 35.5877 35.029V36.2684C35.5877 36.9749 35.0324 37.5478 34.3467 37.5478H16.6544C15.9686 37.5478 15.4126 36.9749 15.4126 36.2684V35.029C15.4126 34.7194 15.4301 34.4137 15.4644 34.1142C15.6719 32.2839 16.4949 30.6476 17.7138 29.431Z" fill="#003A63"/>
<path d="M17.7138 29.4316C16.4949 30.6482 15.6719 32.2844 15.4644 34.1148H4.52414C4.01919 34.1148 3.61035 33.6928 3.61035 33.1749V32.2632C3.61035 29.0992 6.10077 26.5332 9.17166 26.5332H12.8787C14.9519 26.5332 16.7573 27.701 17.7138 29.4316Z" fill="#003A63"/>
<path d="M11.0249 24.5183C8.32686 24.5183 6.13184 22.2563 6.13184 19.476C6.13184 16.6956 8.32686 14.4336 11.0249 14.4336C13.7234 14.4336 15.9188 16.6956 15.9188 19.476C15.9188 22.2563 13.7234 24.5183 11.0249 24.5183ZM11.0249 15.691C8.9998 15.691 7.35226 17.3889 7.35226 19.476C7.35226 21.563 8.9998 23.2609 11.0249 23.2609C13.0505 23.2609 14.6984 21.563 14.6984 19.476C14.6984 17.3889 13.0505 15.691 11.0249 15.691Z" fill="#003A63"/>
<path d="M15.4643 34.7433H4.52404C3.68365 34.7433 3 34.0396 3 33.1747V32.263C3 28.7568 5.76852 25.9043 9.17153 25.9043H12.8786C15.0855 25.9043 17.136 27.1296 18.2347 29.1035C18.2918 29.1993 18.3247 29.3118 18.3247 29.4322C18.3247 29.7794 18.0515 30.0609 17.7145 30.0609C17.5459 30.0609 17.3933 29.9905 17.2828 29.8766C17.2445 29.8372 17.211 29.7923 17.1835 29.7425C16.3036 28.1506 14.654 27.1617 12.8786 27.1617H9.17153C6.44145 27.1617 4.22042 29.4501 4.22042 32.263V33.1747C4.22042 33.3463 4.35658 33.4859 4.52404 33.4859H15.4643C15.8013 33.4859 16.0745 33.7674 16.0745 34.1146C16.0745 34.4618 15.8013 34.7433 15.4643 34.7433Z" fill="#003A63"/>
<path d="M39.9749 24.5183C37.2764 24.5183 35.0811 22.2563 35.0811 19.476C35.0811 16.6956 37.2764 14.4336 39.9749 14.4336C42.6734 14.4336 44.8688 16.6956 44.8688 19.476C44.8688 22.2563 42.6734 24.5183 39.9749 24.5183ZM39.9749 15.691C37.9494 15.691 36.3015 17.3889 36.3015 19.476C36.3015 21.563 37.9494 23.2609 39.9749 23.2609C42.0004 23.2609 43.6484 21.563 43.6484 19.476C43.6484 17.3889 42.0005 15.691 39.9749 15.691Z" fill="#003A63"/>
<path d="M46.477 34.7433H35.5367C35.1997 34.7433 34.9265 34.4618 34.9265 34.1146C34.9265 33.7674 35.1997 33.4859 35.5367 33.4859H46.477C46.6439 33.4859 46.7798 33.3463 46.7798 33.1747V32.263C46.7798 29.4501 44.5591 27.1617 41.8295 27.1617H38.1217C36.3461 27.1617 34.6965 28.1509 33.8168 29.7432C33.6501 30.0449 33.2779 30.1504 32.9846 29.9786C32.6918 29.8068 32.5895 29.423 32.7563 29.1212C33.8524 27.1369 35.9084 25.9043 38.1217 25.9043H41.8295C45.2321 25.9043 48.0002 28.7568 48.0002 32.263V33.1747C48.0002 34.0396 47.3169 34.7433 46.477 34.7433Z" fill="#003A63"/>
<path d="M34.3465 38.1783H16.6543C15.6331 38.1783 14.8022 37.3223 14.8022 36.2701V35.0307C14.8022 34.6991 14.8211 34.3665 14.8583 34.0422C15.0755 32.1266 15.9388 30.329 17.2891 28.9812C18.822 27.4505 20.8425 26.6074 22.9783 26.6074H28.0225C30.1589 26.6074 32.1792 27.4508 33.711 28.9821C35.0611 30.3281 35.9244 32.1254 36.1418 34.043C36.1789 34.3673 36.1978 34.6998 36.1978 35.0307V36.2701C36.1978 37.3223 35.3673 38.1783 34.3465 38.1783ZM22.9783 27.8649C21.1613 27.8649 19.4424 28.582 18.1384 29.8842C16.9895 31.031 16.2551 32.5597 16.0704 34.1889C16.0387 34.4653 16.0227 34.7483 16.0227 35.0307V36.2701C16.0227 36.6289 16.306 36.9208 16.6543 36.9208H34.3465C34.6944 36.9208 34.9773 36.6289 34.9773 36.2701V35.0307C34.9773 34.7489 34.9613 34.4658 34.9297 34.1895C34.7448 32.5586 34.0105 31.0302 32.862 29.8854C32.8623 29.8856 32.8618 29.8852 32.862 29.8854C31.5592 28.5828 29.84 27.8649 28.0225 27.8649H22.9783Z" fill="#003A63"/>
<path d="M25.5002 24.2661C21.9505 24.2661 19.0625 21.2905 19.0625 17.633C19.0625 13.9756 21.9505 11 25.5002 11C29.0504 11 31.9387 13.9756 31.9387 17.633C31.9387 21.2905 29.0504 24.2661 25.5002 24.2661ZM25.5002 12.2574C22.6234 12.2574 20.2829 14.6689 20.2829 17.633C20.2829 20.5971 22.6234 23.0086 25.5002 23.0086C28.3775 23.0086 30.7183 20.5971 30.7183 17.633C30.7183 14.6689 28.3775 12.2574 25.5002 12.2574Z" fill="#003A63"/>
</g>
</svg>
