<svg width="366" height="394" viewBox="0 0 366 394" fill="none" xmlns="http://www.w3.org/2000/svg">
<mask id="mask0_805_1036" style="mask-type:luminance" maskUnits="userSpaceOnUse" x="14" y="94" width="341" height="210">
<path d="M354.29 94.5605H14.6401V303.495H354.29V94.5605Z" fill="white"/>
</mask>
<g mask="url(#mask0_805_1036)">
<path d="M336.246 161.416L337.101 161.75L272.546 187.027L178.183 223.977L84.363 187.244L19.2642 161.75L178.183 99.5176L336.246 161.416Z" fill="#003A63"/>
<path d="M178.182 228.932C177.646 228.932 177.108 228.832 176.596 228.631L82.7769 191.899L17.6771 166.405C15.8534 165.691 14.6401 163.831 14.6401 161.749C14.6401 159.668 15.8534 157.808 17.6774 157.094L176.596 94.8614C177.62 94.4603 178.744 94.4603 179.769 94.8614L337.832 156.76L338.686 157.094C340.51 157.807 341.724 159.666 341.725 161.748C341.725 163.83 340.512 165.691 338.688 166.405L179.769 228.631C179.257 228.832 178.719 228.932 178.182 228.932ZM32.7385 161.75L85.9501 182.589L178.182 218.699L323.625 161.749L178.182 104.793L32.7385 161.75Z" fill="#003A63"/>
<path d="M178.489 303.495C122.85 303.495 79.2656 281.049 79.2656 252.395C79.2656 249.658 81.3357 247.439 83.8897 247.439C86.4436 247.439 88.5137 249.658 88.5137 252.395C88.5137 262.514 97.6257 272.762 113.513 280.512C130.793 288.94 153.868 293.582 178.489 293.582C203.113 293.582 226.19 288.94 243.471 280.512C259.359 272.762 268.471 262.514 268.471 252.395C268.471 249.658 270.541 247.439 273.095 247.439C275.649 247.439 277.719 249.658 277.719 252.395C277.719 281.049 234.132 303.495 178.489 303.495Z" fill="#003A63"/>
<path d="M83.8897 257.351C81.3357 257.351 79.2656 255.132 79.2656 252.394V188.637C79.2656 185.901 81.3357 183.682 83.8897 183.682C86.4436 183.682 88.5137 185.901 88.5137 188.637V252.394C88.5137 255.132 86.4436 257.351 83.8897 257.351Z" fill="#003A63"/>
<path d="M273.095 257.351C270.541 257.351 268.471 255.132 268.471 252.394V188.637C268.471 185.901 270.541 183.682 273.095 183.682C275.648 183.682 277.718 185.901 277.718 188.637V252.394C277.718 255.132 275.648 257.351 273.095 257.351Z" fill="#003A63"/>
<path d="M336.737 166.372H177.876C175.322 166.372 173.252 164.153 173.252 161.416C173.252 158.678 175.322 156.459 177.876 156.459H336.737C339.291 156.459 341.361 158.678 341.361 161.416C341.361 164.153 339.291 166.372 336.737 166.372Z" fill="#003A63"/>
<path d="M337.35 239.632C334.796 239.632 332.726 237.413 332.726 234.675V162.078C332.726 159.34 334.796 157.121 337.35 157.121C339.904 157.121 341.974 159.34 341.974 162.078V234.675C341.974 237.413 339.904 239.632 337.35 239.632Z" fill="#003A63"/>
<path d="M337.35 267.357C328.012 267.357 320.415 259.211 320.415 249.198C320.415 239.185 328.012 231.039 337.35 231.039C346.692 231.039 354.291 239.185 354.291 249.198C354.291 259.211 346.692 267.357 337.35 267.357ZM337.35 240.952C333.111 240.952 329.662 244.651 329.662 249.198C329.662 253.745 333.111 257.444 337.35 257.444C341.592 257.444 345.043 253.745 345.043 249.198C345.043 244.651 341.592 240.952 337.35 240.952Z" fill="#003A63"/>
</g>
</svg>
