<svg width="280" height="13" viewBox="0 0 280 13" fill="none" xmlns="http://www.w3.org/2000/svg">
<g clip-path="url(#clip0_807_1024)">
<path d="M1.5906 12.9797C23.0164 10.5116 43.9845 7.62331 65.8455 5.80314C88.0065 3.9579 110.626 2.90989 133.225 2.57734C155.47 2.25007 177.77 2.73239 199.839 3.8963C217.059 4.80454 259.753 8.51254 276.49 10.4082C281.078 10.9278 281.198 8.08113 276.677 7.63778C251.648 5.18311 210.202 1.85987 201.96 1.40797C179.252 0.162832 156.28 -0.220059 133.391 0.116098C110.856 0.447158 88.4769 1.58855 66.4049 3.46025C44.0855 5.35284 21.0302 7.78479 0.654996 12.0297C-0.665359 12.3047 0.197206 13.1402 1.5906 12.9797Z" fill="#003A63"/>
</g>
<defs>
<clipPath id="clip0_807_1024">
<rect width="280" height="13" fill="white"/>
</clipPath>
</defs>
</svg>
