<svg width="2482" height="2482" viewBox="0 0 2482 2482" fill="none" xmlns="http://www.w3.org/2000/svg">
<path opacity="0.977" fill-rule="evenodd" clip-rule="evenodd" d="M1249.5 407.5C1253.18 407.335 1256.85 407.501 1260.5 408C1246.5 425 1232.5 442 1218.5 459C1236.69 482.358 1254.69 505.858 1272.5 529.5C1261.54 531.163 1250.54 531.996 1239.5 532C1227 514.167 1214.5 496.333 1202 478.5C1196.33 485.5 1190.67 492.5 1185 499.5C1185.5 511.86 1186.17 524.194 1187 536.5C1178.6 537.851 1170.1 538.518 1161.5 538.5C1158.44 497.472 1155.11 456.472 1151.5 415.5C1159.9 415.341 1168.23 414.675 1176.5 413.5C1178.72 431.114 1180.55 448.781 1182 466.5C1196.83 447.667 1211.67 428.833 1226.5 410C1234.34 409.338 1242 408.505 1249.5 407.5Z" fill="white"/>
<path opacity="0.976" fill-rule="evenodd" clip-rule="evenodd" d="M1294.5 411.5C1302.9 411.561 1311.24 412.228 1319.5 413.5C1319.83 414.5 1320.17 415.5 1320.5 416.5C1319 431.489 1317.67 446.489 1316.5 461.5C1332.09 462.313 1347.59 463.647 1363 465.5C1365.05 449.561 1366.55 433.561 1367.5 417.5C1376.21 417.726 1384.88 418.393 1393.5 419.5C1389.78 460.463 1386.45 501.463 1383.5 542.5C1374.88 541.393 1366.21 540.726 1357.5 540.5C1359.16 522.526 1360.5 504.526 1361.5 486.5C1346.11 485.606 1330.77 484.273 1315.5 482.5C1313.5 500.5 1311.5 518.5 1309.5 536.5C1301.24 535.228 1292.9 534.561 1284.5 534.5C1288.11 493.525 1291.44 452.525 1294.5 411.5Z" fill="white"/>
<path opacity="0.977" fill-rule="evenodd" clip-rule="evenodd" d="M1465.5 437.5C1489.86 435.227 1510.36 442.893 1527 460.5C1537.15 475.021 1540.49 491.021 1537 508.5C1528.07 554.841 1500.9 572.675 1455.5 562C1423.46 549.091 1410.96 525.591 1418 491.5C1422.85 463.504 1438.68 445.504 1465.5 437.5ZM1471.5 460.5C1495.24 458.603 1508.91 469.269 1512.5 492.5C1511.63 506.283 1507.46 518.949 1500 530.5C1483.07 547.756 1466.07 547.756 1449 530.5C1441.9 518.538 1440.57 505.871 1445 492.5C1448.47 477.148 1457.3 466.481 1471.5 460.5Z" fill="white"/>
<path opacity="0.976" fill-rule="evenodd" clip-rule="evenodd" d="M1018.5 440.5C1041.18 436.88 1058.52 444.714 1070.5 464C1063.23 468.554 1055.73 472.721 1048 476.5C1036.84 462.118 1023.34 459.618 1007.5 469C1000.31 475.373 996.647 483.373 996.5 493C997.558 505.399 1000.72 517.233 1006 528.5C1015.17 544.779 1028.34 549.279 1045.5 542C1055.33 534.716 1059.66 524.882 1058.5 512.5C1066.84 512.334 1075.17 512.5 1083.5 513C1085.48 536.378 1075.81 553.045 1054.5 563C1014.8 575.399 988.298 561.899 975 522.5C970.441 506.459 970.441 490.459 975 474.5C983.813 455.85 998.313 444.517 1018.5 440.5Z" fill="white"/>
<path opacity="0.976" fill-rule="evenodd" clip-rule="evenodd" d="M1617.5 487.5C1625.84 490.752 1634 494.418 1642 498.5C1640.93 542.879 1638.76 587.212 1635.5 631.5C1626.63 627.899 1618.29 623.565 1610.5 618.5C1611.67 609.194 1612.17 599.86 1612 590.5C1598.03 583.432 1583.86 576.765 1569.5 570.5C1562.44 577.566 1555.11 584.233 1547.5 590.5C1539.24 587.367 1531.24 583.7 1523.5 579.5C1555.16 549.175 1586.49 518.508 1617.5 487.5ZM1616.5 521.5C1617.16 522.793 1617.49 524.293 1617.5 526C1616.55 539.545 1615.21 553.045 1613.5 566.5C1604.35 562.423 1595.35 558.09 1586.5 553.5C1596.16 542.511 1606.16 531.845 1616.5 521.5Z" fill="white"/>
<path opacity="0.979" fill-rule="evenodd" clip-rule="evenodd" d="M885.5 490.5C912.46 487.729 932.627 498.063 946 521.5C956.538 538.189 959.871 556.189 956 575.5C950.018 594.149 937.852 606.983 919.5 614C887.445 625.205 862.612 616.372 845 587.5C832.149 566.784 830.149 545.118 839 522.5C850.133 505.514 865.633 494.848 885.5 490.5ZM886.5 513.5C902.498 512.75 914.332 519.416 922 533.5C929.728 545.075 932.728 557.742 931 571.5C925.039 588.117 913.206 595.95 895.5 595C883.695 592.517 874.862 586.017 869 575.5C863.404 566.21 859.904 556.21 858.5 545.5C860.403 528.267 869.737 517.6 886.5 513.5Z" fill="white"/>
<path opacity="0.977" fill-rule="evenodd" clip-rule="evenodd" d="M778.5 546.5C779.552 546.351 780.552 546.517 781.5 547C805.534 579.568 829.201 612.402 852.5 645.5C848.057 649.562 843.39 653.395 838.5 657C836.431 658.874 834.098 659.874 831.5 660C821.52 645.86 811.187 632.027 800.5 618.5C787.656 627.422 774.99 636.588 762.5 646C773.2 659.901 783.533 674.067 793.5 688.5C786.872 693.488 780.205 698.488 773.5 703.5C748.619 670.778 724.286 637.612 700.5 604C707.423 598.955 714.256 593.788 721 588.5C730.667 601.5 740.333 614.5 750 627.5C761.833 619 773.667 610.5 785.5 602C787.007 601.163 787.507 599.996 787 598.5C777.763 586.267 768.93 573.767 760.5 561C766.668 556.327 772.668 551.494 778.5 546.5Z" fill="white"/>
<path opacity="0.977" fill-rule="evenodd" clip-rule="evenodd" d="M1757.5 562.5C1764.62 567.573 1771.62 572.906 1778.5 578.5C1769.24 590.682 1759.74 602.682 1750 614.5C1749.32 615.784 1749.48 616.951 1750.5 618C1762.33 627.167 1774.17 636.333 1786 645.5C1795.5 633.333 1805 621.167 1814.5 609C1815.5 608.333 1816.5 608.333 1817.5 609C1823.97 613.635 1829.97 618.802 1835.5 624.5C1810.24 656.682 1784.74 688.682 1759 720.5C1752.18 715.515 1745.68 710.181 1739.5 704.5C1750.37 690.798 1761.04 676.965 1771.5 663C1759.64 652.812 1747.48 642.978 1735 633.5C1724 647.5 1713 661.5 1702 675.5C1695.17 670 1688.33 664.5 1681.5 659C1707.2 627.076 1732.54 594.909 1757.5 562.5Z" fill="white"/>
<path opacity="0.956" fill-rule="evenodd" clip-rule="evenodd" d="M936.5 612.5C941.588 618.483 945.588 625.316 948.5 633C942.303 637.689 935.47 641.522 928 644.5C923.285 638.245 919.452 631.412 916.5 624C923.038 619.899 929.704 616.066 936.5 612.5Z" fill="white"/>
<path opacity="0.976" fill-rule="evenodd" clip-rule="evenodd" d="M630.5 666.5C660.443 693.939 690.277 721.606 720 749.5C720.667 750.5 720.667 751.5 720 752.5C714.28 758.566 708.447 764.066 702.5 769C672.531 741.366 642.865 713.366 613.5 685C619.004 678.663 624.671 672.496 630.5 666.5Z" fill="white"/>
<path opacity="0.979" fill-rule="evenodd" clip-rule="evenodd" d="M1856.5 669.5C1886.77 668.585 1908.27 681.919 1921 709.5C1928.09 730.127 1925.09 749.127 1912 766.5C1902.9 777.938 1891.73 786.771 1878.5 793C1858.34 800.406 1839.68 797.739 1822.5 785C1793.2 760.018 1789.03 731.518 1810 699.5C1822.33 684.292 1837.83 674.292 1856.5 669.5ZM1861.5 694.5C1881.56 693.273 1894.39 702.273 1900 721.5C1901.03 729.734 1899.36 737.4 1895 744.5C1888.09 754.042 1879.59 761.875 1869.5 768C1849.27 776.37 1834.11 770.87 1824 751.5C1819.92 739.157 1821.92 727.823 1830 717.5C1838.43 706.729 1848.93 699.062 1861.5 694.5Z" fill="white"/>
<path opacity="0.997" fill-rule="evenodd" clip-rule="evenodd" d="M1414.5 705.5C1415.5 705.47 1416.16 705.97 1416.5 707C1374.51 931.448 1332.84 1155.95 1291.5 1380.5C1228.16 1368.66 1167.16 1349.5 1108.5 1323C1053.31 1297.81 1005.48 1262.64 965 1217.5C942.688 1190.99 940.022 1162.66 957 1132.5C965.889 1118.28 975.556 1104.61 986 1091.5C1015.01 1057.49 1045.84 1024.99 1078.5 994C1114.24 960.261 1150.57 927.261 1187.5 895C1262.77 831.216 1338.44 768.049 1414.5 705.5Z" fill="white"/>
<path opacity="0.977" fill-rule="evenodd" clip-rule="evenodd" d="M565.5 738.5C608.465 750.155 651.132 762.822 693.5 776.5C688.358 783.477 683.024 790.31 677.5 797C667.998 795.449 658.665 792.949 649.5 789.5C646.586 791.261 644.086 793.594 642 796.5C634.408 806.681 626.575 816.681 618.5 826.5C623.381 835.098 628.381 843.598 633.5 852C628.356 859.121 622.856 865.955 617 872.5C593.882 835.108 571.382 797.275 549.5 759C555.048 752.291 560.381 745.458 565.5 738.5ZM582.5 769.5C582.735 768.903 583.235 768.57 584 768.5C597.891 773.075 611.724 777.741 625.5 782.5C619.189 790.645 612.689 798.645 606 806.5C598.304 793.993 590.47 781.66 582.5 769.5Z" fill="white"/>
<path opacity="0.956" fill-rule="evenodd" clip-rule="evenodd" d="M1799.5 772.5C1802.39 773.882 1804.89 775.882 1807 778.5C1810.18 782.345 1813.35 786.178 1816.5 790C1811.05 795.614 1805.38 801.114 1799.5 806.5C1793.32 801.15 1787.65 795.316 1782.5 789C1788.06 783.27 1793.73 777.77 1799.5 772.5Z" fill="white"/>
<path opacity="0.976" fill-rule="evenodd" clip-rule="evenodd" d="M1953.5 784.5C1984.69 785.522 2004.19 801.189 2012 831.5C2015.07 847.885 2010.74 861.885 1999 873.5C1992.96 867.291 1986.79 861.291 1980.5 855.5C1992.66 839.427 1990.66 825.26 1974.5 813C1966.77 809.245 1958.77 808.578 1950.5 811C1937.75 815.785 1926.59 822.952 1917 832.5C1905.32 847.946 1906.82 862.112 1921.5 875C1930.72 879.453 1940.05 879.62 1949.5 875.5C1952.24 884.06 1954.58 892.727 1956.5 901.5C1922.67 909.502 1899.84 897.169 1888 864.5C1882.24 840.109 1889.08 819.942 1908.5 804C1921.93 793.615 1936.93 787.115 1953.5 784.5Z" fill="white"/>
<path opacity="0.96" fill-rule="evenodd" clip-rule="evenodd" d="M668.5 821.5C669.552 821.351 670.552 821.517 671.5 822C677.207 826.843 682.874 831.677 688.5 836.5C683.881 843.121 678.881 849.454 673.5 855.5C666.799 850.812 660.466 845.645 654.5 840C659.383 833.957 664.05 827.79 668.5 821.5Z" fill="white"/>
<path opacity="0.976" fill-rule="evenodd" clip-rule="evenodd" d="M514.5 838.5C540.452 838.228 562.619 847.228 581 865.5C598.285 886.097 599.619 907.764 585 930.5C576.967 943.703 569.134 957.037 561.5 970.5C546.704 962.2 532.037 953.7 517.5 945C516.365 944.251 515.365 944.417 514.5 945.5C513.231 949.054 511.231 952.054 508.5 954.5C503.667 951.918 499 949.085 494.5 946C496.625 942.918 498.625 939.751 500.5 936.5C485.368 927.096 470.035 917.93 454.5 909C464.874 891.084 475.374 873.251 486 855.5C493.533 846.325 503.033 840.659 514.5 838.5ZM515.5 863.5C537.043 865.854 554.877 875.187 569 891.5C571.793 896.739 572.46 902.072 571 907.5C566.951 917.935 561.618 927.602 555 936.5C545.936 931.719 537.103 926.552 528.5 921C532.207 914.418 536.041 907.918 540 901.5C540.711 899.633 540.211 898.133 538.5 897C534.423 895.213 530.59 893.046 527 890.5C522.822 898.201 518.155 905.534 513 912.5C503.936 907.719 495.103 902.552 486.5 897C491.126 889.583 495.626 882.083 500 874.5C504.011 868.957 509.177 865.29 515.5 863.5Z" fill="white"/>
<path opacity="0.975" fill-rule="evenodd" clip-rule="evenodd" d="M2066.5 928.5C2068.34 929.122 2069.5 930.456 2070 932.5C2080.87 961.618 2092.04 990.618 2103.5 1019.5C2097.24 1022.65 2090.74 1025.31 2084 1027.5C2078.91 1017.59 2074.58 1007.26 2071 996.5C2070.61 995.572 2069.95 994.905 2069 994.5C2037.89 1006.64 2006.72 1018.64 1975.5 1030.5C1972.01 1023.21 1969.01 1015.71 1966.5 1008C1966.64 1007.23 1966.98 1006.56 1967.5 1006C1998.57 993.922 2029.57 981.755 2060.5 969.5C2056.3 958.905 2052.3 948.239 2048.5 937.5C2048.83 936.833 2049.17 936.167 2049.5 935.5C2055.35 933.336 2061.01 931.003 2066.5 928.5Z" fill="white"/>
<path fill-rule="evenodd" clip-rule="evenodd" d="M1162.5 977.5C1168.81 977.079 1174.81 978.246 1180.5 981C1188.55 985.06 1196.05 989.894 1203 995.5C1209.16 991.348 1215.32 987.182 1221.5 983C1242.32 972.167 1255.49 978 1261 1000.5C1261.14 1009.87 1260.8 1019.2 1260 1028.5C1268.65 1031.74 1276.82 1035.91 1284.5 1041C1298.81 1053.25 1299.15 1065.92 1285.5 1079C1277.75 1085.04 1269.08 1089.21 1259.5 1091.5C1260.52 1102.48 1260.68 1113.48 1260 1124.5C1256.25 1138.79 1247.09 1144.63 1232.5 1142C1221.57 1138.2 1211.9 1132.37 1203.5 1124.5C1194.89 1132.59 1184.89 1138.43 1173.5 1142C1159.58 1144.75 1150.74 1139.25 1147 1125.5C1145 1114.13 1145.17 1102.8 1147.5 1091.5C1135.18 1088.68 1124.68 1082.68 1116 1073.5C1110.47 1065.34 1110.14 1057.01 1115 1048.5C1123.79 1039.19 1134.29 1032.52 1146.5 1028.5C1146.83 1027.5 1147.17 1026.5 1147.5 1025.5C1145.27 1015.18 1145.1 1004.85 1147 994.5C1149.28 986.056 1154.45 980.389 1162.5 977.5Z" fill="#0E0E0E"/>
<path fill-rule="evenodd" clip-rule="evenodd" d="M1165.5 988.5C1178.09 988.141 1189.09 992.141 1198.5 1000.5C1192.64 1007.19 1186.98 1014.02 1181.5 1021C1172.03 1022.13 1162.69 1023.96 1153.5 1026.5C1153.33 1018.83 1153.5 1011.16 1154 1003.5C1155.94 996.906 1159.77 991.906 1165.5 988.5Z" fill="white"/>
<path fill-rule="evenodd" clip-rule="evenodd" d="M1228.5 988.5C1246 987.835 1254.33 996.335 1253.5 1014C1253.56 1018.25 1253.06 1022.42 1252 1026.5C1243.22 1024.62 1234.38 1022.78 1225.5 1021C1220.02 1014.02 1214.36 1007.19 1208.5 1000.5C1214.6 995.454 1221.27 991.454 1228.5 988.5Z" fill="white"/>
<path fill-rule="evenodd" clip-rule="evenodd" d="M1201.5 1005.5C1203.31 1005.49 1204.98 1005.99 1206.5 1007C1209.98 1011.31 1213.65 1015.48 1217.5 1019.5C1208.17 1020.83 1198.83 1020.83 1189.5 1019.5C1193.15 1014.52 1197.15 1009.85 1201.5 1005.5Z" fill="white"/>
<path opacity="0.975" fill-rule="evenodd" clip-rule="evenodd" d="M435.5 1011.5C439.833 1011.5 444.167 1011.5 448.5 1011.5C447.533 1020.14 446.866 1028.81 446.5 1037.5C430.886 1038.61 421.719 1046.94 419 1062.5C416.909 1080.74 424.409 1093.24 441.5 1100C455.317 1106.1 469.317 1106.77 483.5 1102C497.621 1092.68 503.455 1079.51 501 1062.5C500.524 1058.42 499.358 1054.59 497.5 1051C492.947 1049.57 488.447 1048.07 484 1046.5C481.511 1054.79 479.178 1063.12 477 1071.5C476.326 1072.58 475.326 1073.25 474 1073.5C467.373 1072.29 461.207 1070.13 455.5 1067C460.275 1050.18 464.942 1033.34 469.5 1016.5C486.175 1020.08 502.509 1024.75 518.5 1030.5C527.733 1055.84 526.233 1080.51 514 1104.5C498.271 1127.09 476.771 1135.59 449.5 1130C402.112 1117.58 386.279 1088.08 402 1041.5C408.392 1025.93 419.559 1015.93 435.5 1011.5Z" fill="white"/>
<path fill-rule="evenodd" clip-rule="evenodd" d="M1186.5 1025.5C1198.91 1025.05 1211.24 1025.72 1223.5 1027.5C1231.11 1037.72 1237.44 1048.72 1242.5 1060.5C1236.97 1072.41 1230.3 1083.58 1222.5 1094C1209.44 1096.11 1196.44 1095.95 1183.5 1093.5C1175.77 1083.21 1169.43 1072.04 1164.5 1060C1169.77 1048.61 1175.94 1037.78 1183 1027.5C1184.3 1026.92 1185.47 1026.25 1186.5 1025.5Z" fill="white"/>
<path fill-rule="evenodd" clip-rule="evenodd" d="M1171.5 1027.5C1173.2 1027.34 1174.87 1027.51 1176.5 1028C1171.04 1035.75 1166.2 1043.92 1162 1052.5C1158.74 1045.87 1156.57 1038.87 1155.5 1031.5C1161.05 1030.58 1166.38 1029.25 1171.5 1027.5Z" fill="white"/>
<path fill-rule="evenodd" clip-rule="evenodd" d="M1230.5 1027.5C1237.83 1028.5 1244.83 1030.5 1251.5 1033.5C1249.84 1040.33 1247.67 1046.99 1245 1053.5C1240.4 1044.62 1235.56 1035.95 1230.5 1027.5Z" fill="white"/>
<path fill-rule="evenodd" clip-rule="evenodd" d="M1147.5 1034.5C1148.5 1034.41 1149.33 1034.75 1150 1035.5C1152.24 1043.88 1155.07 1052.05 1158.5 1060C1155.27 1067.68 1152.44 1075.51 1150 1083.5C1149.61 1084.43 1148.95 1085.09 1148 1085.5C1139.31 1082.47 1131.97 1077.47 1126 1070.5C1120.86 1062.34 1121.53 1054.67 1128 1047.5C1133.86 1042.13 1140.36 1037.79 1147.5 1034.5Z" fill="white"/>
<path fill-rule="evenodd" clip-rule="evenodd" d="M1256.5 1034.5C1266.2 1037.44 1274.37 1042.77 1281 1050.5C1284.53 1057.67 1284.2 1064.67 1280 1071.5C1274.02 1077.66 1267.02 1082.33 1259 1085.5C1258.23 1085.36 1257.56 1085.02 1257 1084.5C1254.46 1076.39 1251.63 1068.39 1248.5 1060.5C1251.78 1052 1254.44 1043.33 1256.5 1034.5Z" fill="white"/>
<path fill-rule="evenodd" clip-rule="evenodd" d="M1198.5 1044.5C1215.57 1044.38 1221.73 1052.38 1217 1068.5C1210.56 1077.04 1202.72 1078.54 1193.5 1073C1184.24 1061.52 1185.9 1052.02 1198.5 1044.5Z" fill="#0E0E0E"/>
<path opacity="0.975" fill-rule="evenodd" clip-rule="evenodd" d="M2111.5 1050.5C2112.5 1050.5 2113.5 1050.5 2114.5 1050.5C2116 1058.19 2117.67 1065.85 2119.5 1073.5C2119.39 1074.44 2119.06 1075.28 2118.5 1076C2091.44 1082.08 2064.44 1088.41 2037.5 1095C2026.61 1099.61 2022.11 1107.77 2024 1119.5C2024.93 1126.85 2028.09 1133.02 2033.5 1138C2036.45 1139.65 2039.62 1140.48 2043 1140.5C2072.02 1135 2100.85 1128.66 2129.5 1121.5C2132.21 1129.52 2134.55 1137.69 2136.5 1146C2123.01 1149.79 2109.35 1153.12 2095.5 1156C2094.83 1158.24 2095.33 1160.41 2097 1162.5C2100.45 1167.79 2105.28 1170.79 2111.5 1171.5C2113.33 1171.22 2115 1170.56 2116.5 1169.5C2114.77 1166.05 2114.43 1162.55 2115.5 1159C2123.09 1157.02 2130.75 1155.52 2138.5 1154.5C2139.69 1162.27 2141.36 1169.93 2143.5 1177.5C2131.18 1181.87 2118.51 1183.7 2105.5 1183C2100.22 1181.38 2095.72 1178.55 2092 1174.5C2088.49 1169.49 2085.49 1164.16 2083 1158.5C2069.44 1162.38 2055.6 1165.05 2041.5 1166.5C2022.18 1164.69 2010.02 1154.36 2005 1135.5C2001.02 1123.03 2000.02 1110.37 2002 1097.5C2005.65 1085.19 2013.48 1076.69 2025.5 1072C2029.79 1070.51 2034.12 1069.18 2038.5 1068C2063 1062.29 2087.33 1056.46 2111.5 1050.5Z" fill="white"/>
<path fill-rule="evenodd" clip-rule="evenodd" d="M1161.5 1067.5C1166.06 1075.6 1170.89 1083.6 1176 1091.5C1176.59 1092.48 1176.26 1093.15 1175 1093.5C1168.76 1092.1 1162.59 1090.43 1156.5 1088.5C1156.27 1081.15 1157.94 1074.15 1161.5 1067.5Z" fill="white"/>
<path fill-rule="evenodd" clip-rule="evenodd" d="M1244.5 1067.5C1248.19 1073.92 1250.53 1080.92 1251.5 1088.5C1244.6 1090.48 1237.6 1091.64 1230.5 1092C1236.08 1084.35 1240.74 1076.18 1244.5 1067.5Z" fill="white"/>
<path fill-rule="evenodd" clip-rule="evenodd" d="M1153.5 1094.5C1162.38 1096.6 1171.38 1098.1 1180.5 1099C1186.13 1106.29 1192.13 1113.29 1198.5 1120C1189.72 1128.15 1179.38 1132.15 1167.5 1132C1160.93 1129.76 1156.76 1125.26 1155 1118.5C1153.64 1110.57 1153.14 1102.57 1153.5 1094.5Z" fill="white"/>
<path fill-rule="evenodd" clip-rule="evenodd" d="M1248.5 1094.5C1250.17 1094.5 1251.83 1094.5 1253.5 1094.5C1254.09 1103.66 1253.26 1112.66 1251 1121.5C1245.55 1131.47 1237.38 1134.64 1226.5 1131C1219.62 1128.4 1213.62 1124.57 1208.5 1119.5C1214.64 1113.2 1220.31 1106.54 1225.5 1099.5C1233.36 1098.1 1241.03 1096.43 1248.5 1094.5Z" fill="white"/>
<path fill-rule="evenodd" clip-rule="evenodd" d="M1189.5 1101.5C1198.66 1100.34 1207.99 1100.18 1217.5 1101C1213.35 1106.32 1208.68 1111.15 1203.5 1115.5C1198.45 1111.12 1193.79 1106.45 1189.5 1101.5Z" fill="white"/>
<path opacity="0.952" fill-rule="evenodd" clip-rule="evenodd" d="M1992.5 1116.5C1995.57 1124.45 1997.57 1132.78 1998.5 1141.5C1990.7 1142.53 1983.03 1144.19 1975.5 1146.5C1972.75 1138.37 1971.08 1130.2 1970.5 1122C1978.03 1120.45 1985.37 1118.62 1992.5 1116.5Z" fill="white"/>
<path opacity="0.977" fill-rule="evenodd" clip-rule="evenodd" d="M377.5 1150.5C418.262 1155.18 458.929 1160.51 499.5 1166.5C499.833 1167 500.167 1167.5 500.5 1168C499.245 1176.05 497.912 1184.05 496.5 1192C468.951 1204.61 441.285 1216.94 413.5 1229C439.112 1232.91 464.778 1236.41 490.5 1239.5C489.5 1247.5 488.5 1255.5 487.5 1263.5C446.847 1258.07 406.18 1252.74 365.5 1247.5C365.816 1238.79 367.149 1230.29 369.5 1222C397.285 1209.94 424.951 1197.61 452.5 1185C427.331 1180.85 401.998 1177.19 376.5 1174C375.833 1173.67 375.167 1173.33 374.5 1173C376.11 1165.62 377.11 1158.12 377.5 1150.5Z" fill="white"/>
<path opacity="0.972" fill-rule="evenodd" clip-rule="evenodd" d="M916.5 1208.5C947.195 1250.69 984.862 1285.52 1029.5 1313C1079.26 1342.54 1131.92 1365.54 1187.5 1382C1243.56 1397.1 1299.89 1411.1 1356.5 1424C1418.07 1440.31 1470.57 1471.48 1514 1517.5C1545.81 1555.92 1562.48 1600.25 1564 1650.5C1564.5 1658.49 1564.67 1666.49 1564.5 1674.5C1557.83 1674.5 1551.17 1674.5 1544.5 1674.5C1548.07 1597.82 1519.07 1536.98 1457.5 1492C1435.24 1476.2 1411.24 1463.53 1385.5 1454C1335.13 1437.24 1283.8 1424.24 1231.5 1415C1166.26 1399.36 1103.92 1376.03 1044.5 1345C1006.22 1323.44 971.057 1297.61 939 1267.5C934.7 1262.2 930.034 1257.2 925 1252.5C919.856 1243.93 917.189 1234.6 917 1224.5C916.501 1219.18 916.334 1213.84 916.5 1208.5Z" fill="white"/>
<path opacity="0.978" fill-rule="evenodd" clip-rule="evenodd" d="M2026.5 1264.5C2067.49 1266.17 2108.49 1267.5 2149.5 1268.5C2149.82 1277.09 2149.48 1285.59 2148.5 1294C2121.66 1309.59 2094.66 1324.92 2067.5 1340C2094.15 1341.28 2120.82 1342.11 2147.5 1342.5C2147.06 1350.49 2146.73 1358.49 2146.5 1366.5C2105.48 1365.59 2064.48 1364.25 2023.5 1362.5C2023.33 1354.83 2023.5 1347.16 2024 1339.5C2024.31 1338.23 2024.81 1337.07 2025.5 1336C2051.33 1321.59 2077 1306.92 2102.5 1292C2076.86 1290.43 2051.19 1289.27 2025.5 1288.5C2026.17 1280.52 2026.5 1272.52 2026.5 1264.5Z" fill="white"/>
<path opacity="0.997" fill-rule="evenodd" clip-rule="evenodd" d="M923.5 1273.5C975.285 1322.59 1034.62 1360.43 1101.5 1387C1168.67 1414.13 1238.01 1433.79 1309.5 1446C1352.74 1455.08 1393.74 1470.08 1432.5 1491C1491.33 1525.12 1523.5 1576.29 1529 1644.5C1529.55 1654.18 1529.88 1663.85 1530 1673.5C1515.57 1674.16 1501.07 1674.5 1486.5 1674.5C1317.17 1673.89 1147.83 1673.23 978.5 1672.5C972.303 1635.96 966.803 1599.29 962 1562.5C949.023 1466.16 936.19 1369.83 923.5 1273.5Z" fill="white"/>
<path opacity="0.977" fill-rule="evenodd" clip-rule="evenodd" d="M379.5 1282.5C387.6 1281.89 395.267 1283.39 402.5 1287C407.047 1291.21 411.214 1295.71 415 1300.5C440.353 1294.76 462.02 1301.09 480 1319.5C494.416 1342.24 496.083 1365.91 485 1390.5C475.511 1404.67 462.344 1413.5 445.5 1417C425.472 1421.15 406.472 1418.49 388.5 1409C369.521 1393.76 361.687 1373.92 365 1349.5C368.2 1326.97 380.367 1311.47 401.5 1303C397.539 1297.19 392.205 1295.02 385.5 1296.5C386.803 1300.03 386.803 1303.53 385.5 1307C377.847 1307.78 370.181 1308.28 362.5 1308.5C361.681 1300.52 361.014 1292.52 360.5 1284.5C367.008 1284.13 373.342 1283.46 379.5 1282.5ZM422.5 1325.5C435.436 1323.85 447.436 1326.35 458.5 1333C473.794 1349.12 474.127 1365.45 459.5 1382C444.819 1391.58 428.819 1394.58 411.5 1391C391.378 1384.27 383.545 1370.43 388 1349.5C391.474 1339.36 398.307 1332.53 408.5 1329C413.295 1327.8 417.962 1326.63 422.5 1325.5Z" fill="white"/>
<path opacity="0.96" fill-rule="evenodd" clip-rule="evenodd" d="M357.5 1351.5C358.75 1351.58 359.583 1352.24 360 1353.5C360.667 1358.17 360.667 1362.83 360 1367.5C352.655 1375.68 345.155 1383.68 337.5 1391.5C336.167 1382.49 335.333 1373.49 335 1364.5C342.645 1360.27 350.145 1355.93 357.5 1351.5Z" fill="white"/>
<path opacity="0.977" fill-rule="evenodd" clip-rule="evenodd" d="M2022.5 1387.5C2062.51 1394.56 2102.51 1401.72 2142.5 1409C2143.08 1409.89 2143.41 1410.89 2143.5 1412C2142.1 1419.5 2140.77 1427 2139.5 1434.5C2123.53 1431.62 2107.53 1428.95 2091.5 1426.5C2089.21 1441.39 2086.55 1456.23 2083.5 1471C2083.91 1471.95 2084.57 1472.61 2085.5 1473C2100.17 1475.67 2114.83 1478.33 2129.5 1481C2130.08 1481.89 2130.41 1482.89 2130.5 1484C2128.84 1491.45 2127.51 1498.95 2126.5 1506.5C2085.75 1499.45 2045.09 1491.95 2004.5 1484C2006.25 1476.59 2007.75 1469.09 2009 1461.5C2009.67 1460.42 2010.67 1459.75 2012 1459.5C2028.81 1462.7 2045.64 1465.7 2062.5 1468.5C2064.65 1453.41 2067.32 1438.41 2070.5 1423.5C2070.29 1422.91 2069.96 1422.41 2069.5 1422C2052.78 1419.02 2036.12 1415.86 2019.5 1412.5C2019.31 1404.1 2020.31 1395.76 2022.5 1387.5Z" fill="white"/>
<path opacity="0.973" fill-rule="evenodd" clip-rule="evenodd" d="M398.5 1442.5C416.602 1440.55 428.602 1448.22 434.5 1465.5C435.5 1465.83 436.5 1466.17 437.5 1466.5C450.495 1463.2 463.662 1460.87 477 1459.5C495.3 1461.32 507.3 1470.99 513 1488.5C517.113 1500.87 518.446 1513.53 517 1526.5C514.608 1539.22 507.441 1548.06 495.5 1553C490.5 1554.67 485.5 1556.33 480.5 1558C455.475 1563.77 430.475 1569.6 405.5 1575.5C402.603 1567.53 400.269 1559.36 398.5 1551C426.859 1544.16 455.193 1537.16 483.5 1530C490.735 1526.21 494.735 1520.21 495.5 1512C494.785 1504.19 492.285 1497.02 488 1490.5C484.57 1487.45 480.57 1485.78 476 1485.5C446.632 1491.14 417.466 1497.3 388.5 1504C386.378 1496.4 384.378 1488.73 382.5 1481C382.645 1480.23 382.978 1479.56 383.5 1479C397.278 1476.05 410.944 1472.71 424.5 1469C420.63 1458.58 413.297 1454.08 402.5 1455.5C402.768 1458.74 403.434 1461.91 404.5 1465C404.167 1465.5 403.833 1466 403.5 1466.5C395.965 1468.81 388.299 1470.47 380.5 1471.5C378.577 1463.55 376.911 1455.55 375.5 1447.5C383.381 1446.28 391.048 1444.61 398.5 1442.5Z" fill="white"/>
<path opacity="0.976" fill-rule="evenodd" clip-rule="evenodd" d="M1997.5 1508.5C2035.56 1518.69 2073.56 1529.19 2111.5 1540C2113.65 1540.26 2115.32 1541.26 2116.5 1543C2114.41 1550.52 2112.24 1558.02 2110 1565.5C2109.59 1565.96 2109.09 1566.29 2108.5 1566.5C2069.62 1555.03 2030.62 1544.03 1991.5 1533.5C1993.09 1525.07 1995.09 1516.74 1997.5 1508.5Z" fill="white"/>
<path opacity="0.975" fill-rule="evenodd" clip-rule="evenodd" d="M1984.5 1553.5C2022.95 1568.23 2061.29 1583.23 2099.5 1598.5C2088.53 1627.1 2077.2 1655.43 2065.5 1683.5C2059.24 1680.87 2052.91 1678.53 2046.5 1676.5C2053.97 1655.42 2061.64 1634.42 2069.5 1613.5C2061.49 1611 2053.66 1608 2046 1604.5C2038.67 1623.17 2031.33 1641.83 2024 1660.5C2021.85 1661.48 2019.69 1661.31 2017.5 1660C2012.47 1658.22 2007.8 1655.89 2003.5 1653C2010.84 1634.32 2018.17 1615.65 2025.5 1597C2015.57 1593.36 2005.74 1589.52 1996 1585.5C1987.15 1606.23 1978.98 1627.23 1971.5 1648.5C1964.05 1647.02 1957.05 1644.35 1950.5 1640.5C1961.84 1611.47 1973.17 1582.47 1984.5 1553.5Z" fill="white"/>
<path opacity="0.977" fill-rule="evenodd" clip-rule="evenodd" d="M527.5 1559.5C528.376 1559.37 529.043 1559.7 529.5 1560.5C533.5 1569.17 537.5 1577.83 541.5 1586.5C533.667 1599.5 525.833 1612.5 518 1625.5C513.44 1631.84 511.773 1638.84 513 1646.5C514.667 1650.5 516.333 1654.5 518 1658.5C532.483 1651.67 546.983 1644.84 561.5 1638C562.793 1637.51 564.127 1637.34 565.5 1637.5C568.898 1645.36 571.898 1653.36 574.5 1661.5C537.414 1677.87 500.414 1694.54 463.5 1711.5C452.622 1690.4 442.789 1668.74 434 1646.5C428.688 1624.64 436.855 1610.14 458.5 1603C474.583 1599.46 487.083 1604.62 496 1618.5C497.717 1611.69 500.05 1605.02 503 1598.5C511.188 1585.44 519.355 1572.44 527.5 1559.5ZM466.5 1627.5C473.331 1626.05 478.831 1628.05 483 1633.5C488.56 1644.12 493.726 1654.95 498.5 1666C489.928 1670.87 481.095 1675.37 472 1679.5C465.981 1667.14 460.814 1654.47 456.5 1641.5C457.116 1634.88 460.45 1630.22 466.5 1627.5Z" fill="white"/>
<path fill-rule="evenodd" clip-rule="evenodd" d="M1101.5 1571.5C1101.17 1582.19 1101.5 1592.85 1102.5 1603.5C1103.11 1603.38 1103.44 1603.04 1103.5 1602.5C1113.97 1592.2 1124.64 1582.03 1135.5 1572C1142.83 1571.33 1150.17 1571.33 1157.5 1572C1147.32 1581.35 1137.32 1590.85 1127.5 1600.5C1138.17 1615.17 1148.83 1629.83 1159.5 1644.5C1152.52 1645.66 1145.52 1645.83 1138.5 1645C1130.78 1633.72 1122.95 1622.55 1115 1611.5C1110.68 1615.15 1106.34 1618.82 1102 1622.5C1101.5 1630.16 1101.33 1637.83 1101.5 1645.5C1095.83 1645.5 1090.17 1645.5 1084.5 1645.5C1084.5 1620.83 1084.5 1596.17 1084.5 1571.5C1090.17 1571.5 1095.83 1571.5 1101.5 1571.5Z" fill="#0E0E0E"/>
<path fill-rule="evenodd" clip-rule="evenodd" d="M1101.5 1571.5C1102.17 1581.83 1102.83 1592.17 1103.5 1602.5C1103.44 1603.04 1103.11 1603.38 1102.5 1603.5C1101.5 1592.85 1101.17 1582.19 1101.5 1571.5Z" fill="#0E0E0E"/>
<path fill-rule="evenodd" clip-rule="evenodd" d="M1219.5 1645.5C1219.5 1634.5 1219.5 1623.5 1219.5 1612.5C1208.32 1612.17 1197.32 1612.51 1186.5 1613.5C1186.5 1624.17 1186.5 1634.83 1186.5 1645.5C1180.83 1645.5 1175.17 1645.5 1169.5 1645.5C1169.5 1620.83 1169.5 1596.17 1169.5 1571.5C1175.17 1571.5 1180.83 1571.5 1186.5 1571.5C1186.5 1581.17 1186.5 1590.83 1186.5 1600.5C1197.5 1600.5 1208.5 1600.5 1219.5 1600.5C1219.5 1590.83 1219.5 1581.17 1219.5 1571.5C1225.17 1571.5 1230.83 1571.5 1236.5 1571.5C1236.5 1596.17 1236.5 1620.83 1236.5 1645.5C1230.83 1645.5 1225.17 1645.5 1219.5 1645.5Z" fill="#0E0E0E"/>
<path fill-rule="evenodd" clip-rule="evenodd" d="M1247.5 1571.5C1269.83 1571.5 1292.17 1571.5 1314.5 1571.5C1314.5 1575.5 1314.5 1579.5 1314.5 1583.5C1306.17 1583.5 1297.83 1583.5 1289.5 1583.5C1289.5 1604.17 1289.5 1624.83 1289.5 1645.5C1283.83 1645.5 1278.17 1645.5 1272.5 1645.5C1272.5 1624.83 1272.5 1604.17 1272.5 1583.5C1264.17 1583.5 1255.83 1583.5 1247.5 1583.5C1247.5 1579.5 1247.5 1575.5 1247.5 1571.5Z" fill="#0E0E0E"/>
<path fill-rule="evenodd" clip-rule="evenodd" d="M1374.5 1618.5C1374.78 1619.29 1375.28 1619.96 1376 1620.5C1376.5 1604.17 1376.67 1587.84 1376.5 1571.5C1381.5 1571.5 1386.5 1571.5 1391.5 1571.5C1391.5 1596.17 1391.5 1620.83 1391.5 1645.5C1385.82 1645.67 1380.16 1645.5 1374.5 1645C1363.46 1629.08 1352.29 1613.25 1341 1597.5C1340.5 1613.5 1340.33 1629.5 1340.5 1645.5C1335.5 1645.5 1330.5 1645.5 1325.5 1645.5C1325.5 1620.83 1325.5 1596.17 1325.5 1571.5C1331.21 1571.17 1336.87 1571.5 1342.5 1572.5C1353.18 1587.86 1363.84 1603.2 1374.5 1618.5Z" fill="#0E0E0E"/>
<path fill-rule="evenodd" clip-rule="evenodd" d="M1376.5 1571.5C1376.67 1587.84 1376.5 1604.17 1376 1620.5C1375.28 1619.96 1374.78 1619.29 1374.5 1618.5C1375.17 1602.83 1375.83 1587.17 1376.5 1571.5Z" fill="#0E0E0E"/>
<path fill-rule="evenodd" clip-rule="evenodd" d="M1186.5 1613.5C1197.32 1612.51 1208.32 1612.17 1219.5 1612.5C1219.5 1623.5 1219.5 1634.5 1219.5 1645.5C1218.51 1635.01 1218.17 1624.35 1218.5 1613.5C1207.83 1613.5 1197.17 1613.5 1186.5 1613.5Z" fill="#0E0E0E"/>
<path opacity="0.959" fill-rule="evenodd" clip-rule="evenodd" d="M2099.5 1614.5C2105.14 1622.32 2110.64 1630.32 2116 1638.5C2116.67 1640.17 2116.67 1641.83 2116 1643.5C2113.33 1649.34 2111.16 1655.34 2109.5 1661.5C2099.21 1664.16 2088.88 1666.32 2078.5 1668C2080.93 1662.22 2083.26 1656.39 2085.5 1650.5C2090 1648.55 2094.67 1647.22 2099.5 1646.5C2097.46 1641.93 2095.12 1637.43 2092.5 1633C2094.71 1626.75 2097.04 1620.59 2099.5 1614.5Z" fill="white"/>
<path opacity="0.978" fill-rule="evenodd" clip-rule="evenodd" d="M1940.5 1659.5C1975.78 1681.15 2010.78 1703.31 2045.5 1726C2040.92 1732.5 2036.58 1739.16 2032.5 1746C2001.5 1745.86 1970.5 1745.86 1939.5 1746C1961.63 1759.97 1983.63 1774.14 2005.5 1788.5C2001.66 1795.51 1997.33 1802.17 1992.5 1808.5C1957.66 1786.58 1923 1764.42 1888.5 1742C1892.71 1735.08 1897.04 1728.25 1901.5 1721.5C1932.14 1721.53 1962.81 1721.36 1993.5 1721C1971.92 1707.63 1950.42 1694.13 1929 1680.5C1928.68 1679.09 1929.02 1677.76 1930 1676.5C1933.72 1670.95 1937.22 1665.28 1940.5 1659.5Z" fill="white"/>
<path opacity="0.976" fill-rule="evenodd" clip-rule="evenodd" d="M600.5 1704.5C601.496 1704.41 602.329 1704.75 603 1705.5C607.838 1712.19 611.838 1719.19 615 1726.5C586.831 1743.92 558.831 1761.58 531 1779.5C530.333 1780.5 530.333 1781.5 531 1782.5C536.964 1791.6 542.798 1800.77 548.5 1810C543.2 1814.75 537.366 1818.92 531 1822.5C513 1795.17 495.5 1767.5 478.5 1739.5C484.196 1735.3 490.029 1731.3 496 1727.5C502.916 1737.66 509.583 1748 516 1758.5C544.073 1740.24 572.24 1722.24 600.5 1704.5Z" fill="white"/>
<path opacity="0.977" fill-rule="evenodd" clip-rule="evenodd" d="M1072.5 1757.5C1093.81 1755.21 1111.97 1761.54 1127 1776.5C1139.03 1793.97 1143.36 1813.31 1140 1834.5C1138.52 1846.79 1134.02 1857.79 1126.5 1867.5C1132.54 1871.52 1138.88 1875.02 1145.5 1878C1142.29 1884.25 1138.96 1890.41 1135.5 1896.5C1132.5 1895.33 1129.5 1894.17 1126.5 1893C1120.46 1888.65 1114.13 1884.82 1107.5 1881.5C1085.65 1888.95 1064.65 1887.12 1044.5 1876C1027.64 1862.13 1019.64 1844.13 1020.5 1822C1019.86 1800.91 1027.19 1783.25 1042.5 1769C1051.71 1762.88 1061.71 1759.04 1072.5 1757.5ZM1077.5 1779.5C1094.82 1779.23 1106.32 1787.23 1112 1803.5C1115.28 1815.5 1115.28 1827.5 1112 1839.5C1110.49 1844.03 1108.32 1848.2 1105.5 1852C1099.5 1848.5 1093.17 1845.16 1086.5 1842C1084.56 1841.19 1082.56 1840.69 1080.5 1840.5C1078.5 1845.83 1076.5 1851.17 1074.5 1856.5C1079.52 1857.85 1084.19 1860.01 1088.5 1863C1069.69 1866.52 1056.85 1859.35 1050 1841.5C1047.1 1829.58 1046.77 1817.58 1049 1805.5C1053.29 1790.96 1062.79 1782.3 1077.5 1779.5Z" fill="white"/>
<path opacity="0.976" fill-rule="evenodd" clip-rule="evenodd" d="M1207.5 1757.5C1222.2 1756.34 1236.2 1758.84 1249.5 1765C1260.28 1772.08 1266.45 1781.91 1268 1794.5C1260.37 1796.16 1252.7 1797.83 1245 1799.5C1233.77 1779.4 1217.61 1774.57 1196.5 1785C1188.2 1791.43 1183.36 1799.93 1182 1810.5C1180.72 1821.73 1181.72 1832.73 1185 1843.5C1196.08 1863 1212.24 1868.5 1233.5 1860C1237.42 1858.46 1240.92 1856.29 1244 1853.5C1244.5 1848.51 1244.67 1843.51 1244.5 1838.5C1235.17 1838.5 1225.83 1838.5 1216.5 1838.5C1216.5 1831.17 1216.5 1823.83 1216.5 1816.5C1234.5 1816.5 1252.5 1816.5 1270.5 1816.5C1270.67 1833.5 1270.5 1850.5 1270 1867.5C1245.55 1886.06 1218.72 1890.56 1189.5 1881C1172.08 1872.9 1161.25 1859.4 1157 1840.5C1152.44 1820.95 1154.78 1802.28 1164 1784.5C1174.39 1768.73 1188.89 1759.73 1207.5 1757.5Z" fill="white"/>
<path opacity="0.977" fill-rule="evenodd" clip-rule="evenodd" d="M1518.5 1757.5C1538.54 1755.12 1555.04 1761.45 1568 1776.5C1572.4 1782.07 1574.56 1788.24 1574.5 1795C1566.94 1796.6 1559.44 1798.43 1552 1800.5C1551.23 1800.36 1550.56 1800.02 1550 1799.5C1546.13 1787.14 1537.63 1780.48 1524.5 1779.5C1508.04 1781.12 1498.54 1790.12 1496 1806.5C1493.15 1822.03 1494.82 1837.03 1501 1851.5C1511.75 1864.46 1524.58 1866.96 1539.5 1859C1541 1857.5 1542.5 1856 1544 1854.5C1547.14 1848.89 1549.97 1843.22 1552.5 1837.5C1560.57 1839.97 1568.57 1842.63 1576.5 1845.5C1569.53 1871.91 1552.36 1885.58 1525 1886.5C1492.65 1884.48 1473.98 1867.48 1469 1835.5C1466.43 1816.83 1469.43 1799.16 1478 1782.5C1487.86 1768.16 1501.36 1759.83 1518.5 1757.5Z" fill="white"/>
<path opacity="0.971" fill-rule="evenodd" clip-rule="evenodd" d="M778.5 1759.5C797.503 1759.33 816.503 1759.5 835.5 1760C862.115 1762.95 877.281 1777.78 881 1804.5C883.85 1821.52 882.516 1838.19 877 1854.5C870.125 1870.7 857.959 1880.2 840.5 1883C819.836 1883.5 799.169 1883.67 778.5 1883.5C778.5 1865.83 778.5 1848.17 778.5 1830.5C774.5 1830.5 770.5 1830.5 766.5 1830.5C766.5 1824.83 766.5 1819.17 766.5 1813.5C770.5 1813.5 774.5 1813.5 778.5 1813.5C778.5 1795.5 778.5 1777.5 778.5 1759.5ZM804.5 1781.5C813.173 1781.33 821.84 1781.5 830.5 1782C842.383 1783.22 850.05 1789.55 853.5 1801C855.986 1814.79 856.153 1828.62 854 1842.5C850.719 1855.78 842.219 1862.28 828.5 1862C820.507 1862.5 812.507 1862.67 804.5 1862.5C804.5 1851.83 804.5 1841.17 804.5 1830.5C813.167 1830.5 821.833 1830.5 830.5 1830.5C830.5 1824.83 830.5 1819.17 830.5 1813.5C821.833 1813.5 813.167 1813.5 804.5 1813.5C804.5 1802.83 804.5 1792.17 804.5 1781.5Z" fill="white"/>
<path opacity="0.983" fill-rule="evenodd" clip-rule="evenodd" d="M902.5 1759.5C911.167 1759.5 919.833 1759.5 928.5 1759.5C928.5 1775.83 928.5 1792.17 928.5 1808.5C944.167 1808.5 959.833 1808.5 975.5 1808.5C975.5 1792.17 975.5 1775.83 975.5 1759.5C984.167 1759.5 992.833 1759.5 1001.5 1759.5C1001.5 1800.83 1001.5 1842.17 1001.5 1883.5C992.833 1883.5 984.167 1883.5 975.5 1883.5C975.5 1865.83 975.5 1848.17 975.5 1830.5C959.833 1830.5 944.167 1830.5 928.5 1830.5C928.5 1848.17 928.5 1865.83 928.5 1883.5C919.833 1883.5 911.167 1883.5 902.5 1883.5C902.5 1842.17 902.5 1800.83 902.5 1759.5Z" fill="white"/>
<path opacity="0.987" fill-rule="evenodd" clip-rule="evenodd" d="M1349.5 1759.5C1357.83 1759.5 1366.17 1759.5 1374.5 1759.5C1374.5 1775.83 1374.5 1792.17 1374.5 1808.5C1390.5 1808.5 1406.5 1808.5 1422.5 1808.5C1422.5 1792.17 1422.5 1775.83 1422.5 1759.5C1431.17 1759.5 1439.83 1759.5 1448.5 1759.5C1448.5 1800.83 1448.5 1842.17 1448.5 1883.5C1439.83 1883.5 1431.17 1883.5 1422.5 1883.5C1422.5 1865.83 1422.5 1848.17 1422.5 1830.5C1406.5 1830.5 1390.5 1830.5 1374.5 1830.5C1374.5 1848.17 1374.5 1865.83 1374.5 1883.5C1366.17 1883.5 1357.83 1883.5 1349.5 1883.5C1349.5 1842.17 1349.5 1800.83 1349.5 1759.5Z" fill="white"/>
<path opacity="0.981" fill-rule="evenodd" clip-rule="evenodd" d="M1595.5 1759.5C1608.5 1759.5 1621.5 1759.5 1634.5 1759.5C1640.89 1786.75 1648.06 1813.75 1656 1840.5C1663 1813.83 1670 1787.17 1677 1760.5C1689.75 1759.51 1702.59 1759.18 1715.5 1759.5C1715.5 1800.83 1715.5 1842.17 1715.5 1883.5C1707.5 1883.5 1699.5 1883.5 1691.5 1883.5C1691.67 1853.16 1691.5 1822.83 1691 1792.5C1683.34 1822.82 1675.84 1853.15 1668.5 1883.5C1659.83 1883.5 1651.17 1883.5 1642.5 1883.5C1635.32 1852.77 1627.82 1822.11 1620 1791.5C1619.5 1822.16 1619.33 1852.83 1619.5 1883.5C1611.5 1883.5 1603.5 1883.5 1595.5 1883.5C1595.5 1842.17 1595.5 1800.83 1595.5 1759.5Z" fill="white"/>
<path opacity="0.964" fill-rule="evenodd" clip-rule="evenodd" d="M1289.5 1826.5C1305.17 1826.5 1320.83 1826.5 1336.5 1826.5C1336.5 1834.83 1336.5 1843.17 1336.5 1851.5C1320.83 1851.5 1305.17 1851.5 1289.5 1851.5C1289.5 1843.17 1289.5 1834.83 1289.5 1826.5Z" fill="white"/>
</svg>
